<svg xmlns="http://www.w3.org/2000/svg" viewBox="0 0 64 64" width="64" height="64" fill="none">
  <g stroke="#ffffff" stroke-width="2" fill="none">
    <path d="M32 10c3 8-3 12-3 12s-6-4-3-12c3-8 9-8 12 0 3 8-3 12-3 12s-6-4-3-12Z"/>
    <path d="M10 32c8-3 12 3 12 3s-4 6-12 3c-8-3-8-9 0-12 8-3 12 3 12 3s-4 6-12 3Z"/>
    <path d="M32 54c-3-8 3-12 3-12s6 4 3 12c-3 8-9 8-12 0-3-8 3-12 3-12s6 4 3 12Z"/>
    <path d="M54 32c-8 3-12-3-12-3s4-6 12-3c8 3 8 9 0 12-8 3-12-3-12-3s4-6 12-3Z"/>
    <circle cx="32" cy="32" r="4" fill="#ffffff"/>
  </g>
</svg>
